<svg width="15" height="44" viewBox="0 0 15 44" fill="none" xmlns="http://www.w3.org/2000/svg">
<g clip-path="url(#clip0_0_89)">
<path d="M12.1835 16.0283H11.163C11.0536 15.2173 10.6573 14.4723 10.0458 13.9284C9.43435 13.3845 8.64826 13.0777 7.83002 13.0635C7.01178 13.0777 6.22568 13.3845 5.61423 13.9284C5.00277 14.4723 4.60642 15.2173 4.49702 16.0283H3.47702C2.9158 16.0287 2.37767 16.2517 1.98076 16.6485C1.58385 17.0452 1.3606 17.5833 1.36002 18.1445V25.86C1.36052 26.4212 1.58362 26.9592 1.98036 27.356C2.3771 27.7528 2.91507 27.9761 3.47622 27.9767H12.1832C12.7445 27.9762 13.2826 27.7531 13.6795 27.3562C14.0763 26.9594 14.2995 26.4213 14.3 25.86V18.1445C14.2994 17.5834 14.0762 17.0454 13.6794 16.6487C13.2826 16.2519 12.7446 16.0288 12.1835 16.0283ZM7.83002 14.1631C8.35743 14.1746 8.86513 14.3657 9.2692 14.7048C9.67327 15.044 9.94949 15.5109 10.0522 16.0283H5.60782C5.71054 15.5109 5.98677 15.044 6.39083 14.7048C6.7949 14.3657 7.30261 14.1746 7.83002 14.1631ZM13.2 25.86C13.1997 26.1296 13.0925 26.388 12.902 26.5787C12.7114 26.7694 12.453 26.8767 12.1834 26.8771H3.47652C3.20696 26.8767 2.94858 26.7693 2.75803 26.5787C2.56748 26.388 2.46031 26.1296 2.46002 25.86V18.1445C2.46033 17.875 2.56754 17.6166 2.75812 17.426C2.9487 17.2354 3.20709 17.1282 3.47662 17.1279H12.1836C12.4531 17.1283 12.7114 17.2355 12.902 17.4261C13.0925 17.6167 13.1997 17.875 13.2 18.1445V25.86Z" fill="black" fill-opacity="0.8"/>
</g>
<defs>
<clipPath id="clip0_0_89">
<rect width="14" height="44" fill="white" transform="translate(0.830017)"/>
</clipPath>
</defs>
</svg>
