<svg width="22" height="55" viewBox="0 0 22 55" fill="none" xmlns="http://www.w3.org/2000/svg">
<g id="home_accessories_light__eu5v1y6592eu_large.svg" clip-path="url(#clip0_0_56)">
<path id="Vector" d="M17.6 37.73C19.2121 36.0918 21.13 33.499 21.13 30.4406C21.1447 27.7153 20.0884 25.0933 18.1887 23.1393C17.2795 22.1923 16.1905 21.4362 14.9856 20.9151C13.7807 20.394 12.4839 20.1184 11.1712 20.1045H11.0595C9.75173 20.1223 8.46055 20.3998 7.26092 20.9207C6.0613 21.4417 4.97713 22.1958 4.07137 23.1393C2.17307 25.0918 1.11689 27.7114 1.12997 30.4346C1.12997 33.493 3.02997 36.0859 4.62417 37.73C5.96961 39.3211 6.69452 41.3449 6.66527 43.4284L6.67097 44.5H15.6183V43.4461C15.5675 41.364 16.2713 39.3338 17.6 37.73ZM13.63 53.5H8.62997V52.5H13.63V53.5ZM15.63 50.5H6.62997V49.5H15.63V50.5ZM15.63 47.5H6.62997V46.5H15.63V47.5Z" fill="#1D1D1F"/>
</g>
<defs>
<clipPath id="clip0_0_56">
<rect width="21" height="54" fill="white" transform="translate(0.629974 0.5)"/>
</clipPath>
</defs>
</svg>
