<svg width="38" height="55" viewBox="0 0 38 55" fill="none" xmlns="http://www.w3.org/2000/svg">
<g id="homekit_light__bu42vvqsjaj6_large.svg" clip-path="url(#clip0_0_49)">
<path id="Vector" d="M19.5588 32.05C19.3348 31.8669 19.0544 31.7668 18.765 31.7666C18.4757 31.7664 18.1952 31.8662 17.9709 32.049L17.26 32.632L15.26 34.272V39.46C15.2603 39.7409 15.3721 40.0102 15.5709 40.2087C15.7697 40.4072 16.0391 40.5186 16.32 40.5184H21.2C21.4809 40.5186 21.7504 40.4072 21.9492 40.2087C22.1479 40.0102 22.2598 39.7409 22.26 39.46V34.2642L20.26 32.6242L19.5588 32.05ZM20.26 38.5223H17.26V35.2157L18.7649 33.9819L20.26 35.2079V38.5223ZM20.052 25.4484C19.6916 25.1418 19.2339 24.9733 18.7607 24.9731C18.2875 24.9729 17.8296 25.141 17.469 25.4474L13.8728 28.4837L10.26 31.5338V43.4558C10.2602 43.7182 10.3122 43.978 10.4128 44.2204C10.5134 44.4627 10.6608 44.6828 10.8465 44.8682C11.0322 45.0536 11.2527 45.2006 11.4952 45.3008C11.7377 45.4009 11.9976 45.4524 12.26 45.4521H25.26C25.5224 45.4524 25.7823 45.4009 26.0248 45.3008C26.2674 45.2006 26.4878 45.0536 26.6735 44.8682C26.8592 44.6828 27.0066 44.4627 27.1073 44.2204C27.2079 43.978 27.2598 43.7182 27.26 43.4558V31.5339L23.6473 28.4839L20.052 25.4484ZM25.26 43.4558H12.26V32.46L14.605 30.48L15.5137 29.7129C15.5897 29.6226 15.6804 29.546 15.7821 29.4862L16.97 28.4837L18.76 26.9719L20.5505 28.4837L21.7379 29.4861C21.8396 29.5459 21.9304 29.6225 22.0063 29.7128L22.915 30.4799L25.26 32.46V43.4558ZM36.3956 32.2619L32.26 28.8612V23.0512C32.2599 22.9528 32.2405 22.8554 32.2027 22.7645C32.165 22.6736 32.1097 22.5911 32.0401 22.5216C31.9704 22.4521 31.8878 22.397 31.7968 22.3594C31.7059 22.3218 31.6084 22.3025 31.51 22.3026H29.51C29.3125 22.3064 29.1241 22.3864 28.9843 22.5259C28.8445 22.6655 28.7641 22.8537 28.76 23.0512V25.9834L27.0149 24.5484L24.5872 22.5521L20.35 19.0677C19.9015 18.7005 19.3397 18.4999 18.76 18.4999C18.1803 18.4999 17.6185 18.7005 17.17 19.0677L12.9327 22.5519L10.505 24.5482L7.26002 27.2166L5.26002 28.8612L1.12442 32.2619C0.920055 32.4305 0.791038 32.6734 0.765749 32.9371C0.74046 33.2008 0.82097 33.4638 0.989568 33.6682C1.15817 33.8725 1.40104 34.0015 1.66476 34.0268C1.92849 34.0521 2.19146 33.9716 2.39582 33.803L5.26002 31.4477V47.256C5.26041 47.6824 5.34479 48.1046 5.50833 48.4984C5.67187 48.8922 5.91137 49.2499 6.21316 49.5511C6.51495 49.8523 6.87312 50.0912 7.26722 50.254C7.66131 50.4168 8.08362 50.5004 8.51002 50.5H29.01C29.4364 50.5004 29.8587 50.4168 30.2528 50.254C30.6469 50.0912 31.0051 49.8523 31.3069 49.5511C31.6087 49.2499 31.8482 48.8922 32.0117 48.4984C32.1752 48.1046 32.2596 47.6824 32.26 47.256V31.4477L35.1243 33.803C35.2255 33.8865 35.3421 33.9492 35.4676 33.9876C35.593 34.026 35.7248 34.0394 35.8554 34.0268C35.986 34.0143 36.1128 33.9762 36.2286 33.9147C36.3445 33.8531 36.4471 33.7694 36.5306 33.6682C36.614 33.567 36.6768 33.4503 36.7152 33.3249C36.7536 33.1995 36.7669 33.0677 36.7544 32.9371C36.7419 32.8065 36.7037 32.6797 36.6422 32.5638C36.5807 32.448 36.4968 32.3454 36.3956 32.2619ZM30.26 47.256C30.2594 47.5871 30.1274 47.9045 29.8931 48.1384C29.6587 48.3723 29.3411 48.5037 29.01 48.5037H8.51002C8.1789 48.5037 7.8613 48.3723 7.62695 48.1384C7.39259 47.9045 7.26063 47.5871 7.26002 47.256V29.8032L13.6507 24.5482L16.0784 22.5519L18.4415 20.6088C18.5313 20.5353 18.6438 20.4951 18.7599 20.4951C18.876 20.4951 18.9885 20.5353 19.0783 20.6088L21.4414 22.5519L23.8691 24.5482L30.26 29.8032V47.256Z" fill="#1D1D1F"/>
</g>
<defs>
<clipPath id="clip0_0_49">
<rect width="37" height="54" fill="white" transform="translate(0.260025 0.5)"/>
</clipPath>
</defs>
</svg>
