<svg width="23" height="55" viewBox="0 0 23 55" fill="none" xmlns="http://www.w3.org/2000/svg">
<g id="homepodmini_light__genrqjukfl26_large.svg" clip-path="url(#clip0_0_40)">
<g id="Group">
<path id="Vector" d="M21.4944 36.7673C20.8774 34.854 19.6921 33.1741 18.0964 31.9512C17.636 31.627 17.0914 31.4432 16.5286 31.4222C15.3773 31.3039 14.2222 31.1941 13.0662 31.1559C12.574 31.1397 12.0813 31.132 11.5881 31.1327C11.095 31.1327 10.6023 31.1404 10.1099 31.1559C8.9539 31.1941 7.79883 31.3039 6.64749 31.4222C6.08473 31.4432 5.54013 31.627 5.07971 31.9512C3.50492 33.194 2.32451 34.867 1.68161 36.7673C1.22823 38.0823 1.04684 39.4757 1.14848 40.8629C1.27203 42.7721 1.918 44.6106 3.01581 46.1774C3.95424 47.5535 5.21239 48.6814 6.6824 49.4644C7.13494 49.7279 7.61466 49.9416 8.11318 50.1018C9.24831 50.3901 10.4171 50.524 11.588 50.5C12.7589 50.524 13.9277 50.39 15.0629 50.1018C15.5614 49.9415 16.0411 49.7278 16.4936 49.4644C17.9636 48.6813 19.2218 47.5534 20.1602 46.1774C21.258 44.6105 21.904 42.772 22.0275 40.8629C22.1436 39.4753 21.9618 38.0789 21.4944 36.7673ZM11.588 33.1811C8.52562 33.1811 6.04302 32.8035 6.04302 32.3376C6.04302 31.8718 8.52558 31.4941 11.588 31.4941C14.6505 31.4941 17.1329 31.8718 17.1329 32.3376C17.1329 32.8035 14.6504 33.1811 11.588 33.1811Z" fill="#1D1D1F"/>
<path id="Vector_2" d="M11.588 32.7642C13.8273 32.7642 15.6427 32.5732 15.6427 32.3376C15.6427 32.102 13.8273 31.9111 11.588 31.9111C9.34868 31.9111 7.53334 32.102 7.53334 32.3376C7.53334 32.5732 9.34868 32.7642 11.588 32.7642Z" fill="#1D1D1F"/>
</g>
</g>
<defs>
<clipPath id="clip0_0_40">
<rect width="22" height="54" fill="white" transform="translate(0.590019 0.5)"/>
</clipPath>
</defs>
</svg>
