<svg width="55" height="39" viewBox="0 0 55 39" fill="none" xmlns="http://www.w3.org/2000/svg">
<g id="homepod_light__b9tveb5xovhy_large.svg" clip-path="url(#clip0_0_33)">
<path id="Vector" d="M37.3473 3.72702C34.3665 2.10569 27.9819 2.25675 27.9819 2.25675H27.4683C27.4683 2.25675 21.0837 2.08555 18.1028 3.72702C17.0881 4.39519 16.2642 5.31531 15.7117 6.39738C15.1592 7.47944 14.897 8.68639 14.9508 9.90016V26.3451C14.9508 26.6371 14.9709 26.9493 15.0112 27.2413C15.1019 28.7519 15.6759 30.2222 16.6426 31.3903C19.3415 34.3913 23.9436 34.4316 27.71 34.4719C31.4863 34.4417 36.0784 34.3812 38.7773 31.3903C39.7468 30.215 40.318 28.7622 40.4087 27.2413C40.449 26.9493 40.4691 26.6472 40.4691 26.3451V9.90016C40.5274 8.68571 40.2673 7.47712 39.7143 6.39426C39.1614 5.31141 38.335 4.39192 37.3171 3.72702H37.3372H37.3473ZM27.7301 5.24765H27.4783C23.8631 5.22751 20.9628 4.77434 20.9628 4.23054C20.9628 3.68674 23.8631 3.23357 27.4783 3.21343H27.7301C31.4763 3.21343 34.4974 3.67667 34.4974 4.24061C34.4974 4.80455 31.4763 5.26779 27.7301 5.26779V5.24765ZM32.9768 4.22047C32.9768 4.52258 30.6203 4.77434 27.7301 4.77434C24.8399 4.77434 22.4834 4.53265 22.4834 4.22047C22.4834 3.90829 24.8399 3.6666 27.7301 3.6666C30.6203 3.6666 32.9768 3.90829 32.9768 4.22047Z" fill="#1D1D1F"/>
</g>
<defs>
<clipPath id="clip0_0_33">
<rect width="54.38" height="38.2674" fill="white" transform="translate(0.530029 0.232605)"/>
</clipPath>
</defs>
</svg>
