<svg width="48" height="55" viewBox="0 0 48 55" fill="none" xmlns="http://www.w3.org/2000/svg">
<g id="apple_tv_plus_light__fjwmgqxuwomu_large.svg" clip-path="url(#clip0_0_25)">
<g id="Group">
<path id="Vector" d="M11.205 31.152C11.8409 30.3856 12.1562 29.4033 12.085 28.41C11.1098 28.5042 10.2095 28.9744 9.57502 29.721C9.25889 30.0785 9.01663 30.495 8.86216 30.9466C8.7077 31.3981 8.6441 31.8758 8.67502 32.352C9.16082 32.3614 9.64217 32.2579 10.0812 32.0496C10.5202 31.8414 10.9049 31.5341 11.205 31.152ZM12.025 32.533C10.625 32.452 9.44502 33.333 8.77502 33.333C8.10502 33.333 7.08502 32.577 5.98502 32.597C5.26474 32.6172 4.56238 32.8261 3.94818 33.2029C3.33397 33.5797 2.82943 34.1111 2.48502 34.744C0.985018 37.344 2.08502 41.217 3.54502 43.334C4.25502 44.34 5.10502 45.539 6.23502 45.5C7.36502 45.461 7.71502 44.8 9.00502 44.8C10.295 44.8 10.675 45.5 11.795 45.475C12.915 45.45 13.695 44.467 14.395 43.375C14.8994 42.6288 15.2935 41.8138 15.565 40.955C14.8924 40.6575 14.3203 40.1718 13.9175 39.5565C13.5147 38.9411 13.2985 38.2224 13.295 37.487C13.3033 36.8345 13.4752 36.1945 13.7949 35.6257C14.1146 35.0568 14.5719 34.5773 15.125 34.231C14.7736 33.7286 14.3111 33.3139 13.7735 33.0191C13.2359 32.7243 12.6376 32.5573 12.025 32.531M20.955 30.515V33.37H23.235V35.255H20.955V42.01C20.955 43.018 21.405 43.532 22.405 43.532C22.6792 43.5269 22.953 43.5068 23.225 43.472V45.372C22.7788 45.4445 22.3271 45.4779 21.875 45.472C19.515 45.472 18.605 44.555 18.605 42.256V35.3H16.815V33.411H18.555V30.517L20.955 30.515ZM31.205 45.368H28.705L24.505 33.411H26.995L29.945 43.019H30.005L32.955 33.411H35.395L31.205 45.368ZM42.185 45.368H40.025V40.468H35.385V38.311H40.015V33.411H42.175V38.311H46.815V40.469H42.185V45.368Z" fill="#1D1D1F"/>
</g>
</g>
<defs>
<clipPath id="clip0_0_25">
<rect width="47" height="54" fill="white" transform="translate(0.815018 0.5)"/>
</clipPath>
</defs>
</svg>
