<svg width="33" height="55" viewBox="0 0 33 55" fill="none" xmlns="http://www.w3.org/2000/svg">
<rect width="33" height="55" fill="#3E3E3E"/>
<g id="Desktop - 1" clip-path="url(#clip0_0_1)">
<rect width="1440" height="1024" transform="translate(-519 -55)" fill="white"/>
<g id="Nav" clip-path="url(#clip1_0_1)" filter="url(#filter0_b_0_1)">
<rect width="1440" height="116" transform="translate(-519 -11)" fill="#F5F5F7" fill-opacity="0.6"/>
<g id="List">
<g id="Item &#226;&#134;&#146; Link">
<g id="Figure">
<g id="apple_tv_app_light__f6s7yq5zej2a_large.svg fill" clip-path="url(#clip2_0_1)">
<g id="apple_tv_app_light__f6s7yq5zej2a_large.svg" clip-path="url(#clip3_0_1)">
<g id="Group">
<path id="Vector" d="M32.645 28.508C32.645 28.126 32.645 27.744 32.645 27.362C32.645 27.04 32.639 26.718 32.631 26.397C32.6221 25.6933 32.5602 24.9914 32.446 24.297C32.3274 23.6013 32.1057 22.9272 31.788 22.297C31.1422 21.0315 30.1118 20.0033 28.845 19.36C28.2148 19.0424 27.5407 18.8206 26.845 18.702C26.1506 18.5878 25.4487 18.5259 24.745 18.517C24.423 18.508 24.101 18.504 23.779 18.503C23.397 18.503 23.015 18.503 22.632 18.503H10.653C10.271 18.503 9.88901 18.503 9.50701 18.503C9.18501 18.503 8.86301 18.509 8.54201 18.517C7.83836 18.5259 7.13638 18.5878 6.44201 18.702C5.74631 18.8206 5.07221 19.0423 4.44201 19.36C3.17697 20.0051 2.14879 21.0343 1.50501 22.3C1.18742 22.9302 0.96564 23.6043 0.84701 24.3C0.732773 24.9944 0.670932 25.6963 0.66201 26.4C0.65301 26.722 0.64901 27.044 0.64801 27.366C0.64801 27.748 0.64801 28.13 0.64801 28.513V41.693C0.64801 41.993 0.65401 42.299 0.66201 42.603C0.670421 43.3056 0.731593 44.0066 0.84501 44.7C0.963582 45.3957 1.18536 46.0698 1.50301 46.7C2.14861 47.9653 3.17857 48.9935 4.44501 49.637C5.07527 49.9545 5.74935 50.1763 6.44501 50.295C7.13938 50.4092 7.84136 50.4711 8.54501 50.48C8.86701 50.489 9.18901 50.493 9.51101 50.494C9.89301 50.494 10.275 50.494 10.658 50.494H22.642C23.024 50.494 23.406 50.494 23.788 50.494C24.11 50.494 24.432 50.488 24.753 50.48C25.4567 50.4711 26.1586 50.4092 26.853 50.295C27.5487 50.1764 28.2228 49.9546 28.853 49.637C30.1157 48.9918 31.142 47.9638 31.785 46.7C32.1025 46.0697 32.3243 45.3957 32.443 44.7C32.5572 44.0056 32.6191 43.3036 32.628 42.6C32.637 42.278 32.641 41.956 32.642 41.634C32.642 41.252 32.642 40.87 32.642 40.487L32.645 28.508ZM10.504 28.882C10.9359 28.38 11.5449 28.0641 12.204 28C12.2512 28.6705 12.0361 29.3331 11.604 29.848C11.3989 30.1059 11.1372 30.3132 10.8391 30.4536C10.5409 30.5941 10.2145 30.664 9.88501 30.658C9.86489 30.3357 9.90927 30.0126 10.0156 29.7076C10.1218 29.4027 10.2879 29.122 10.504 28.882ZM13.816 38.1C13.334 38.809 12.838 39.5 12.045 39.518C11.28 39.532 11.025 39.064 10.145 39.064C9.26501 39.064 8.98301 39.504 8.26001 39.532C7.49501 39.56 6.91401 38.78 6.43301 38.072C5.44101 36.64 4.69001 34.032 5.71001 32.272C5.94609 31.8443 6.28998 31.4858 6.70749 31.2321C7.12501 30.9785 7.60163 30.8384 8.09001 30.826C8.84101 30.812 9.53501 31.326 9.99001 31.326C10.445 31.326 11.251 30.726 12.2 30.787C12.6164 30.8035 13.0234 30.9157 13.3894 31.1147C13.7555 31.3138 14.0708 31.5945 14.311 31.935C13.9347 32.167 13.623 32.4902 13.405 32.8749C13.187 33.2595 13.0697 33.6929 13.064 34.135C13.0679 34.6324 13.2157 35.118 13.4898 35.5331C13.7638 35.9482 14.1522 36.275 14.608 36.474C14.4236 37.0513 14.1568 37.5989 13.816 38.1ZM19.795 32.638H18.245V37.167C18.245 37.867 18.553 38.191 19.231 38.191C19.4166 38.188 19.6018 38.1749 19.786 38.152V39.431C19.4829 39.4803 19.1761 39.5034 18.869 39.5C17.269 39.5 16.645 38.886 16.645 37.33V32.639H15.459V31.368H16.645V29.442H18.245V31.368H19.795V32.638ZM25.214 39.438H23.514L20.654 31.368H22.345L24.351 37.853H24.389L26.395 31.368H28.057L25.214 39.438Z" fill="#1D1D1F"/>
</g>
</g>
</g>
</g>
</g>
</g>
</g>
</g>
<defs>
<filter id="filter0_b_0_1" x="-539" y="-31" width="1480" height="156" filterUnits="userSpaceOnUse" color-interpolation-filters="sRGB">
<feFlood flood-opacity="0" result="BackgroundImageFix"/>
<feGaussianBlur in="BackgroundImageFix" stdDeviation="10"/>
<feComposite in2="SourceAlpha" operator="in" result="effect1_backgroundBlur_0_1"/>
<feBlend mode="normal" in="SourceGraphic" in2="effect1_backgroundBlur_0_1" result="shape"/>
</filter>
<clipPath id="clip0_0_1">
<rect width="1440" height="1024" fill="white" transform="translate(-519 -55)"/>
</clipPath>
<clipPath id="clip1_0_1">
<rect width="1440" height="116" fill="white" transform="translate(-519 -11)"/>
</clipPath>
<clipPath id="clip2_0_1">
<rect width="74.91" height="54" fill="white" transform="translate(-20.81 0.5)"/>
</clipPath>
<clipPath id="clip3_0_1">
<rect width="32" height="54" fill="white" transform="translate(0.645004 0.5)"/>
</clipPath>
</defs>
</svg>
