<svg width="35" height="55" viewBox="0 0 35 55" fill="none" xmlns="http://www.w3.org/2000/svg">
<g id="apple_tv4k_fill_light__b2wtl9srjwb6_large.svg" clip-path="url(#clip0_0_9)">
<g id="Group">
<path id="Vector" d="M30.5835 43.11C31.8819 42.9107 33.0956 42.3424 34.08 41.4728V46.2028C34.08 50.4328 29.0741 50.4428 25.694 50.5005H8.46602C5.08592 50.4421 0.0800171 50.4323 0.0800171 46.2023V41.4764C1.06585 42.3433 2.27906 42.9101 3.57652 43.11C5.06142 43.3957 6.572 43.5264 8.08392 43.5H26.0761C27.588 43.5264 29.0986 43.3957 30.5835 43.11ZM34.0585 38.7889C34.4928 42.2816 28.2239 42.526 26.0761 42.5001H8.08392C5.93552 42.5259 -0.331983 42.2817 0.101517 38.7889C0.665261 35.8304 1.38361 32.9034 2.25362 30.02C3.83222 27.0737 8.30272 27.607 11.35 27.5H22.81C25.8569 27.6076 30.3262 27.0732 31.9063 30.02C32.4763 31.6325 33.072 34.4806 33.6386 36.699C33.8336 37.3834 33.974 38.0823 34.0585 38.7889ZM15.7865 36.3656C16.3394 36.3561 16.5212 36.2009 17.1501 36.2009C17.779 36.2009 17.956 36.3656 18.5033 36.3609C18.9743 36.344 19.4261 36.17 19.7868 35.8667C20.0121 35.7156 20.2081 35.5251 20.3656 35.3043C19.7094 35.1657 19.292 34.8543 19.2988 34.5126C19.3175 34.2136 19.6532 33.9394 20.1873 33.7843C19.5601 33.2384 17.8256 33.456 17.2026 33.5843C16.4008 33.4108 14.8619 33.3043 14.2092 33.8964C13.0333 34.8434 14.6277 36.3517 15.7865 36.3656ZM17.1691 33.369C17.5848 33.3839 17.9974 33.2938 18.3691 33.1072C18.6735 32.9414 18.8291 32.7292 18.8053 32.5158C18.3963 32.525 17.9938 32.6209 17.6246 32.7973C17.3178 32.9528 17.1532 33.1587 17.1691 33.369Z" fill="#1D1D1F"/>
</g>
</g>
<defs>
<clipPath id="clip0_0_9">
<rect width="34" height="54" fill="white" transform="translate(0.0800171 0.5)"/>
</clipPath>
</defs>
</svg>
